<svg width="212" height="49" viewBox="0 0 212 49" fill="none" xmlns="http://www.w3.org/2000/svg">
<path d="M45.2887 25.8414C45.2768 25.8399 45.2649 25.8385 45.2535 25.8358V25.8319C44.9236 25.7596 44.6936 25.5073 44.6621 25.1735C44.6371 24.9015 44.666 24.6321 44.7252 24.3653C44.7764 24.1314 44.8619 23.912 45.0209 23.7267C45.1943 23.5256 45.4204 23.4402 45.6806 23.4349C45.7331 23.4349 45.7778 23.4573 45.8212 23.4849L45.8733 23.5183C45.9222 23.5497 45.9715 23.5814 46.0209 23.6123C46.4125 23.8541 46.8041 23.8541 47.1958 23.6123C47.2497 23.5792 47.303 23.5454 47.3566 23.5114L47.4192 23.4717C47.4967 23.4231 47.5808 23.4349 47.6636 23.4468C47.9645 23.4875 48.1787 23.6518 48.3233 23.9133C48.456 24.1524 48.5125 24.4126 48.5427 24.6807C48.5585 24.8148 48.5638 24.9488 48.5611 25.0828C48.5519 25.5099 48.2773 25.8069 47.8515 25.8516C47.8449 25.8516 47.8397 25.8529 47.837 25.8595H45.3573C45.3363 25.8473 45.3124 25.8443 45.2887 25.8414Z" fill="white"/>
<path d="M46.5768 23.4323C47.1997 23.4336 47.7109 22.9224 47.7069 22.3021C47.703 21.674 47.1984 21.172 46.5742 21.1759C45.9486 21.1799 45.448 21.6832 45.4493 22.3061C45.4506 22.9303 45.9526 23.4323 46.5768 23.4336V23.4323Z" fill="white"/>
<path d="M41.5264 7.76289C41.5144 7.76143 41.5025 7.75996 41.4911 7.75732V7.75338C41.1613 7.6811 40.9313 7.42879 40.8997 7.095C40.8748 6.82298 40.9037 6.55358 40.9628 6.28681C41.0141 6.05289 41.0995 5.83343 41.2585 5.64814C41.432 5.44708 41.658 5.36166 41.9182 5.3564C41.9708 5.3564 42.0154 5.37874 42.0588 5.40634L42.111 5.43978C42.1598 5.47112 42.2092 5.50285 42.2586 5.53381C42.6502 5.77561 43.0418 5.77561 43.4334 5.53381C43.4873 5.50069 43.5406 5.46689 43.5941 5.4329L43.6568 5.3932C43.7343 5.34458 43.8184 5.3564 43.9012 5.36823C44.2022 5.40897 44.4164 5.57324 44.5609 5.83475C44.6936 6.07392 44.7501 6.33412 44.7804 6.6022C44.7961 6.73624 44.8014 6.87028 44.7988 7.00433C44.7896 7.43142 44.5149 7.72841 44.0891 7.77309C44.0826 7.77309 44.0773 7.77441 44.0747 7.78098H41.5949C41.5739 7.76874 41.5501 7.76581 41.5264 7.76289Z" fill="white"/>
<path d="M42.8144 5.35246C43.4373 5.35378 43.9485 4.84258 43.9446 4.22231C43.9406 3.59415 43.436 3.09215 42.8118 3.0961C42.1863 3.10004 41.6856 3.60335 41.6869 4.22625C41.6882 4.85046 42.1902 5.35246 42.8144 5.35378V5.35246Z" fill="white"/>
<path d="M40.6393 43.983C40.6274 43.9815 40.6155 43.9801 40.6041 43.9774V43.9735C40.2742 43.9012 40.0442 43.6489 40.0127 43.3151C39.9877 43.0431 40.0166 42.7737 40.0758 42.5069C40.127 42.273 40.2124 42.0536 40.3715 41.8683C40.5449 41.6672 40.771 41.5818 41.0312 41.5765C41.0837 41.5765 41.1284 41.5989 41.1718 41.6265L41.2248 41.6605C41.2734 41.6916 41.3224 41.7231 41.3715 41.7539C41.7631 41.9957 42.1547 41.9957 42.5463 41.7539C42.6002 41.7209 42.6534 41.6871 42.7069 41.6532L42.7697 41.6133C42.8473 41.5647 42.9314 41.5765 43.0142 41.5883C43.3151 41.6291 43.5293 41.7934 43.6739 42.0549C43.8066 42.294 43.8631 42.5542 43.8933 42.8223C43.9091 42.9564 43.9144 43.0904 43.9117 43.2244C43.9025 43.6515 43.6279 43.9485 43.2021 43.9932C43.1955 43.9932 43.1903 43.9945 43.1876 44.0011H40.7079C40.6869 43.9889 40.663 43.9859 40.6393 43.983Z" fill="white"/>
<path d="M41.9274 41.5739C42.5503 41.5752 43.0615 41.064 43.0575 40.4437C43.0536 39.8156 42.549 39.3136 41.9248 39.3175C41.2992 39.3215 40.7986 39.8248 40.7999 40.4477C40.8012 41.0719 41.3032 41.5739 41.9274 41.5752V41.5739Z" fill="white"/>
<path d="M13.4317 17.587C13.1295 17.6685 13.0033 17.9248 13.0901 18.4452C13.1096 18.5609 13.205 18.5437 13.3057 18.5255C13.3673 18.5144 13.431 18.5029 13.4804 18.5214C13.4891 18.5249 13.4995 18.5237 13.5102 18.5226C13.5156 18.522 13.5211 18.5214 13.5264 18.5214C13.5635 18.5214 13.6005 18.521 13.6374 18.5207C13.7234 18.5198 13.8092 18.519 13.8956 18.5227C13.9692 18.5253 14.0073 18.5148 14.0034 18.4255C13.9993 18.3539 14.0002 18.282 14.001 18.2101C14.0018 18.1434 14.0026 18.0766 13.9995 18.0102C13.9837 17.7171 13.7064 17.5121 13.4317 17.5857V17.587Z" fill="white"/>
<path fill-rule="evenodd" clip-rule="evenodd" d="M20.7028 23.8922C21.6871 24.2786 21.9092 25.5034 21.2206 26.213V26.2117C20.8802 26.5626 20.4755 26.6572 20.0169 26.6191C19.5201 26.5783 19.1679 26.3142 18.9327 25.8871C18.8696 25.7715 18.796 25.7281 18.6672 25.7281C18.0784 25.732 17.4908 25.7307 16.902 25.7294H16.8994C16.5052 25.7281 16.2939 25.5178 16.2939 25.1196V23.1051C16.2939 22.8738 16.2887 22.8685 16.0653 22.8685H15.173C14.9851 22.8698 14.9706 22.8817 14.9706 23.0696V25.9765C14.9706 25.9931 14.9708 26.0098 14.971 26.0265C14.9717 26.082 14.9724 26.1374 14.9653 26.192C14.9312 26.4653 14.7538 26.6191 14.4752 26.6217C14.1821 26.623 14.0034 26.4758 13.964 26.1985C13.9564 26.1394 13.9568 26.0812 13.9572 26.0225L13.9574 25.983V23.1064C13.9574 22.8712 13.9535 22.8685 13.7156 22.8685H12.9153C12.7278 22.8685 12.6341 22.9601 12.6341 23.1432V25.0815C12.6341 25.5349 12.4422 25.7294 11.9928 25.7294C11.8376 25.7294 11.6823 25.7297 11.5271 25.73C11.1133 25.7308 10.6995 25.7315 10.2857 25.7268C10.1385 25.7255 10.0479 25.7701 9.98083 25.9029C9.85468 26.1512 9.66676 26.351 9.41444 26.4706C8.36577 26.9686 7.3276 26.2669 7.30658 25.2327C7.29475 24.6558 7.7271 24.0131 8.34474 23.8449C8.96764 23.6767 9.62733 23.933 9.95587 24.5033C10.0465 24.6623 10.1477 24.7254 10.3317 24.7188C10.5699 24.7095 10.8082 24.7111 11.0464 24.7127C11.1775 24.7136 11.3085 24.7145 11.4395 24.7136C11.5998 24.7136 11.6182 24.6965 11.6182 24.5375C11.6196 24.2865 11.6196 24.0352 11.6196 23.7838C11.6196 23.5325 11.6196 23.2812 11.6209 23.0302C11.6222 22.9119 11.5775 22.8633 11.4579 22.8672C11.3493 22.8698 11.2402 22.869 11.1308 22.8681C11.076 22.8677 11.0212 22.8672 10.9664 22.8672C10.446 22.8672 10.2673 22.6872 10.2673 22.1615C10.2673 22.0962 10.2676 22.0309 10.2679 21.9658C10.2685 21.8359 10.2691 21.7063 10.2673 21.5767C10.2647 21.4059 10.2515 21.3914 10.082 21.3914H8.63648C8.4433 21.3901 8.28298 21.3205 8.17653 21.1588C7.9505 20.8159 8.17916 20.3927 8.60231 20.3796C8.89583 20.3708 9.18994 20.3726 9.48385 20.3743C9.63076 20.3752 9.77761 20.3761 9.92433 20.3756C9.95284 20.3755 9.97899 20.3756 10.003 20.3757C10.1366 20.3761 10.203 20.3763 10.2358 20.3433C10.2681 20.3107 10.2679 20.2457 10.2674 20.1168C10.2673 20.0928 10.2672 20.0666 10.2673 20.0379L10.2676 19.8381C10.2679 19.705 10.2682 19.5718 10.2673 19.4386C10.266 19.2507 10.2555 19.2389 10.0663 19.2389H7.25138L7.20601 19.2391C7.16026 19.2393 7.11369 19.2396 7.0674 19.2376C6.76252 19.2231 6.57854 19.0352 6.57723 18.7395C6.57592 18.4255 6.74938 18.2349 7.06477 18.227C7.38491 18.2197 7.70439 18.2213 8.02369 18.223C8.16049 18.2237 8.29734 18.2244 8.4341 18.2244H10.0649C10.2568 18.2244 10.2686 18.2126 10.2686 18.0273C10.2699 17.7763 10.2699 17.5253 10.2686 17.2743C10.2673 17.1034 10.2529 17.0877 10.0847 17.0877H8.65487C8.46564 17.0863 8.29875 17.0325 8.18704 16.8708C8.07271 16.7066 8.053 16.5318 8.15025 16.3491C8.25012 16.1612 8.41307 16.0784 8.61545 16.0758C8.94332 16.071 9.27188 16.0718 9.60012 16.0726C9.72315 16.0729 9.84613 16.0732 9.96901 16.0732C9.98609 16.0732 10.0032 16.0729 10.0203 16.0726C10.0544 16.072 10.0886 16.0714 10.1228 16.0732C10.2266 16.0771 10.2686 16.0272 10.2686 15.9247C10.2673 15.6842 10.266 15.4424 10.2686 15.2019C10.2726 14.8116 10.4802 14.6026 10.8679 14.5974C11.0676 14.5948 11.2674 14.5948 11.4671 14.5974C11.5788 14.5987 11.6209 14.5514 11.6209 14.441C11.6196 13.9285 11.6196 13.416 11.6209 12.9035C11.6209 12.7905 11.5736 12.751 11.4632 12.751C11.0532 12.755 10.6432 12.7563 10.2331 12.751C10.1031 12.7497 10.0439 12.8194 9.98741 12.9192C9.70093 13.4239 9.262 13.6801 8.68641 13.6735C7.93605 13.6657 7.32366 13.0244 7.31183 12.274C7.30395 11.7891 7.50238 11.4132 7.86771 11.1136C8.04249 10.9704 8.23961 10.8797 8.47221 10.8797C8.48141 10.8784 8.49061 10.8784 8.49981 10.8784C8.50112 10.8744 8.49718 10.8639 8.49718 10.8639H8.92822C9.43284 10.9034 9.78109 11.1754 10.0084 11.613C10.0676 11.7247 10.1543 11.7405 10.2621 11.7405H12.0138C12.4343 11.7418 12.6354 11.9415 12.6354 12.362V14.3753C12.6354 14.5934 12.6433 14.6013 12.8588 14.6013H13.7498C13.9443 14.6013 13.9561 14.5895 13.9561 14.3897V11.4395C13.9561 11.3357 13.9613 11.2358 13.9995 11.1373C14.0612 10.9756 14.1808 10.8968 14.3411 10.8639H14.5869C14.876 10.9572 14.9719 11.0886 14.9719 11.408V14.3569C14.9719 14.5961 14.9759 14.6 15.2085 14.6L15.5054 14.6003C15.7033 14.6006 15.9016 14.6009 16.0994 14.6C16.2768 14.5987 16.2926 14.5842 16.2926 14.4055V12.3778C16.2926 11.9402 16.4924 11.7391 16.93 11.7391C17.0729 11.7391 17.216 11.739 17.3591 11.7388C17.7892 11.7383 18.2204 11.7378 18.6502 11.7418C18.7882 11.7431 18.8696 11.6984 18.9393 11.5709C19.1666 11.153 19.5135 10.9007 19.9985 10.8626H20.4295C20.4269 10.8679 20.4269 10.8731 20.4269 10.8771L20.434 10.8773L20.4394 10.8777C20.4436 10.8781 20.4479 10.8784 20.4518 10.8784C20.8697 10.8876 21.1457 11.136 21.3704 11.4461C21.7607 11.9849 21.6911 12.7891 21.1825 13.2714C20.6897 13.7406 19.959 13.8102 19.39 13.4239C19.185 13.2846 19.0273 13.1058 18.9196 12.8864C18.8709 12.7891 18.8052 12.7537 18.7014 12.7537C18.2914 12.7563 17.8814 12.7563 17.4714 12.7537C17.3544 12.7537 17.3071 12.7983 17.3071 12.9166C17.3098 13.4239 17.3098 13.9311 17.3071 14.4384C17.3058 14.5553 17.3518 14.6053 17.4701 14.6026C17.6279 14.5993 17.7867 14.6006 17.9449 14.6019L18.0391 14.6026C18.4557 14.6066 18.6581 14.8103 18.6607 15.2308V15.876C18.662 16.0679 18.6712 16.0784 18.8591 16.0784L19.337 16.0781C19.6539 16.0778 19.9716 16.0775 20.2889 16.0784C20.4729 16.0797 20.6345 16.1362 20.7423 16.2926C20.8553 16.4569 20.8776 16.6317 20.7804 16.8143C20.6818 17.0022 20.5189 17.085 20.3165 17.089C20.0002 17.0938 19.6831 17.093 19.3664 17.0922C19.2479 17.0919 19.1286 17.0916 19.0102 17.0916H18.7947C18.7067 17.0916 18.662 17.1323 18.662 17.2217V18.0982C18.6633 18.1889 18.7067 18.2283 18.7947 18.2283H21.762C21.875 18.2283 21.9841 18.2375 22.0919 18.2835C22.2404 18.3479 22.3048 18.4662 22.3376 18.6121V18.8578C22.2456 19.1417 22.1142 19.2415 21.808 19.2415C21.1623 19.2424 20.516 19.2421 19.8699 19.2418L18.9012 19.2415C18.6646 19.2415 18.662 19.2442 18.662 19.482V20.1588C18.662 20.373 18.6686 20.3796 18.8893 20.3796L19.3559 20.3793C19.6669 20.379 19.9779 20.3787 20.2889 20.3796C20.4729 20.3796 20.6345 20.4387 20.7423 20.5938C20.8527 20.7528 20.8776 20.9223 20.7883 21.1023C20.6936 21.2929 20.5346 21.3849 20.3323 21.3901C20.0627 21.3977 19.7925 21.3964 19.5221 21.3951C19.4181 21.3946 19.314 21.3941 19.21 21.3941C19.167 21.3941 19.124 21.3947 19.0811 21.3952C18.9954 21.3964 18.9099 21.3976 18.8249 21.3941C18.708 21.3901 18.6594 21.4361 18.6607 21.5557C18.6633 21.7909 18.6633 22.0275 18.6607 22.2627C18.6567 22.6609 18.4491 22.8672 18.0496 22.8712C17.8538 22.8738 17.6593 22.8751 17.4648 22.8712C17.3544 22.8698 17.3071 22.9119 17.3071 23.0249C17.308 23.3666 17.3077 23.7083 17.3074 24.0499L17.3071 24.5624C17.3071 24.6728 17.3518 24.7188 17.4635 24.7188C17.8788 24.7162 18.294 24.7149 18.7093 24.7188C18.8355 24.7201 18.8841 24.6452 18.9366 24.5506C19.2941 23.912 20.0339 23.6294 20.7028 23.8922ZM14.9233 20.3191V19.1509L14.922 19.1522C14.922 19.0295 14.9224 18.907 14.9228 18.7845L14.9228 18.7831V18.7821C14.9237 18.5367 14.9246 18.2914 14.922 18.0457C14.9141 17.2651 14.3083 16.6514 13.5448 16.6474C12.7786 16.6422 12.1597 17.2611 12.1557 18.047C12.1524 18.6789 12.1537 19.3107 12.155 19.9426L12.1557 20.3217C12.1557 20.6122 12.3594 20.8264 12.6236 20.8211C12.8838 20.8159 13.0756 20.6069 13.0769 20.3217C13.0796 20.0655 13.0809 19.8092 13.0756 19.553C13.0743 19.4662 13.1006 19.44 13.1873 19.4426C13.4225 19.4492 13.6591 19.4492 13.8943 19.4426C13.9863 19.44 14.0047 19.4715 14.0034 19.5556C13.9989 19.7752 14.0002 19.9949 14.0015 20.2145L14.0021 20.3244C14.0034 20.6082 14.1979 20.8172 14.4581 20.8211C14.7222 20.8251 14.9233 20.6122 14.9233 20.3191ZM16.3031 20.8211C16.5686 20.8237 16.7683 20.6109 16.7683 20.3178V17.1494C16.767 16.8564 16.5686 16.6435 16.3031 16.6461C16.0377 16.6487 15.8458 16.8616 15.8458 17.1573V20.3099C15.8471 20.6069 16.0377 20.8185 16.3031 20.8211Z" fill="white"/>
<path fill-rule="evenodd" clip-rule="evenodd" d="M46.607 28.9556C43.8763 28.9556 41.6107 26.9318 41.227 24.3062H27.8162C27.5968 24.8358 27.3458 25.3509 27.0672 25.8477H30.6745C32.1568 25.8477 33.3632 27.054 33.3632 28.5364V29.7664C33.3632 30.3801 33.8612 30.8782 34.4749 30.8782H35.0006C35.3541 29.4431 36.6485 28.3787 38.1926 28.3787C40.0088 28.3787 41.4806 29.8505 41.4806 31.6666C41.4806 33.4828 40.0088 34.9546 38.1926 34.9546C36.6485 34.9546 35.3541 33.8902 35.0006 32.4551H34.4749C32.9926 32.4551 31.7862 31.2488 31.7862 29.7664V28.5364C31.7862 27.9227 31.2882 27.4246 30.6745 27.4246H26.0422C25.6203 27.9897 25.1577 28.5232 24.6597 29.02H27.715C29.0896 29.02 30.2093 30.1383 30.2093 31.5142V39.9523C30.2093 40.4582 30.6206 40.8695 31.1265 40.8695H36.5749C36.9573 38.2439 39.2242 36.2201 41.955 36.2201C44.9538 36.2201 47.3929 38.6591 47.3929 41.658C47.3929 44.6568 44.9538 47.0959 41.955 47.0959C39.2242 47.0959 36.9587 45.0721 36.5749 42.4465H31.1265C29.752 42.4465 28.6323 41.3281 28.6323 39.9523V31.5142C28.6323 31.0083 28.221 30.5969 27.715 30.5969H22.7844C22.7529 30.6206 22.7213 30.6443 22.6885 30.6666C23.8357 30.8151 24.7228 31.7941 24.7228 32.9821C24.7228 34.0689 23.9816 34.9783 22.9776 35.2411C23.084 35.5079 23.1445 35.7983 23.1445 36.1032C23.1445 37.1623 22.4388 38.056 21.4729 38.3424C21.6122 38.6407 21.6911 38.9719 21.6911 39.3228C21.6911 40.3925 20.9709 41.2927 19.9906 41.5699V42.4662C19.9906 45.5229 17.5121 48.0013 14.4555 48.0013C11.3988 48.0013 8.92033 45.5229 8.92033 42.4662V41.5699C7.93999 41.2927 7.21984 40.3925 7.21984 39.3228C7.21984 38.9719 7.30001 38.6407 7.43799 38.3424C6.4721 38.056 5.76641 37.1623 5.76641 36.1032C5.76641 35.7983 5.82686 35.5079 5.93331 35.2411C4.92931 34.9783 4.18814 34.0676 4.18814 32.9821C4.18814 31.7941 5.07518 30.8151 6.22242 30.6666C2.46268 28.0554 0 23.7083 0 18.7842C0 10.8009 6.4721 4.32875 14.4555 4.32875C18.4938 4.32875 22.1431 5.98456 24.7661 8.65356V7.10289C24.7661 5.7283 25.8845 4.60866 27.2604 4.60866H37.4685C37.8694 2.00274 40.127 0 42.8433 0C45.8422 0 48.2825 2.43903 48.2825 5.43788C48.2825 8.43673 45.8435 10.8758 42.8447 10.8758C40.0994 10.8758 37.8247 8.83097 37.4593 6.18431H27.2617C26.7557 6.18431 26.3444 6.59563 26.3444 7.10157V10.5577C27.9634 12.893 28.9122 15.7275 28.9122 18.7842C28.9122 19.0378 28.9043 19.2888 28.8912 19.5398H30.71C31.3237 19.5398 31.8217 19.0405 31.8217 18.4281V17.3163C31.8217 15.834 33.0281 14.6276 34.5104 14.6276H35.0032C35.3567 13.1926 36.6511 12.1281 38.1953 12.1281C40.0114 12.1281 41.4832 13.6 41.4832 15.4161C41.4832 17.2322 40.0114 18.704 38.1953 18.704C36.6511 18.704 35.3567 17.6396 35.0032 16.2046H34.5104C33.8967 16.2046 33.3987 16.7026 33.3987 17.3163V18.4281C33.3987 19.9104 32.1923 21.1168 30.71 21.1168H28.723C28.6336 21.6661 28.514 22.2036 28.3655 22.7292H41.227C41.6094 20.1036 43.8763 18.0798 46.607 18.0798C49.6059 18.0798 52.0449 20.5189 52.0449 23.5177C52.0449 26.5166 49.6059 28.9556 46.607 28.9556ZM50.4679 23.5177C50.4679 21.3888 48.7359 19.6568 46.607 19.6568C44.4781 19.6568 42.7461 21.3888 42.7461 23.5177C42.7461 25.6466 44.4781 27.3786 46.607 27.3786C48.7359 27.3786 50.4679 25.6466 50.4679 23.5177ZM39.8208 16.3964C39.7959 16.1704 39.7486 15.9523 39.6369 15.7512V15.7538C39.5146 15.533 39.3346 15.3951 39.0823 15.3609L39.0791 15.3605C39.0117 15.3514 38.9407 15.3418 38.8773 15.3819C38.8155 15.4213 38.7525 15.4607 38.6894 15.5002C38.3596 15.7038 38.031 15.7039 37.7011 15.5002C37.6729 15.4825 37.645 15.4644 37.6171 15.4463C37.5891 15.4283 37.5612 15.4102 37.5329 15.3924C37.4961 15.3688 37.458 15.3504 37.4147 15.3504C37.3779 15.3517 37.3424 15.3543 37.3069 15.3596V16.2059H36.5973C36.5578 16.4069 36.5381 16.608 36.5578 16.813C36.5854 17.0942 36.7786 17.3058 37.0559 17.3676C37.064 17.369 37.0723 17.37 37.0806 17.371C37.1021 17.3734 37.1237 17.3759 37.1426 17.3873H39.2282C39.2295 17.3807 39.2347 17.3807 39.24 17.3807C39.5988 17.3439 39.83 17.0929 39.8366 16.7342C39.8379 16.6211 39.834 16.5081 39.8208 16.3964ZM38.1663 13.4475C37.6398 13.4501 37.2196 13.8726 37.2202 14.3963C37.2202 14.4765 37.232 14.554 37.2504 14.6276H37.3069V14.7906C37.4567 15.1178 37.7839 15.3451 38.169 15.3451C38.6933 15.3464 39.123 14.9167 39.1191 14.395C39.1152 13.8667 38.6907 13.4449 38.1663 13.4475ZM46.7043 5.43788C46.7043 3.30898 44.9722 1.57696 42.8433 1.57696C40.7144 1.57696 38.9824 3.30898 38.9824 5.43788C38.9824 7.56677 40.7144 9.2988 42.8433 9.2988C44.9722 9.2988 46.7043 7.56677 46.7043 5.43788ZM45.8172 41.6593C45.8172 39.5304 44.0852 37.7984 41.9563 37.7984C39.8274 37.7984 38.0954 39.5304 38.0954 41.6593C38.0954 43.7882 39.8274 45.5202 41.9563 45.5202C44.0852 45.5202 45.8172 43.7882 45.8172 41.6593ZM39.1178 30.6456C39.1138 30.1173 38.6894 29.6954 38.165 29.6981C37.6381 29.7007 37.2175 30.1239 37.2189 30.6482C37.2202 31.1738 37.642 31.5944 38.1677 31.5957C38.692 31.597 39.1217 31.1673 39.1178 30.6456ZM36.8588 31.8467C36.7261 32.0018 36.6538 32.187 36.6104 32.3842L36.6091 32.3868C36.5605 32.6102 36.5342 32.8375 36.5565 33.0662C36.5841 33.3474 36.7773 33.559 37.0546 33.6208C37.0627 33.6222 37.0709 33.6232 37.0792 33.6241C37.1007 33.6266 37.1224 33.6291 37.1413 33.6405H39.2269C39.2282 33.6339 39.2334 33.6339 39.2387 33.6339C39.5974 33.5971 39.8287 33.3461 39.8353 32.9874C39.8366 32.8743 39.8327 32.7613 39.8195 32.6496C39.7946 32.4236 39.7472 32.2054 39.6355 32.0044C39.5133 31.7836 39.3333 31.6456 39.081 31.6115L39.0778 31.611C39.0104 31.6019 38.9394 31.5924 38.876 31.6325C38.8142 31.6719 38.7511 31.7113 38.6881 31.7508C38.3582 31.9544 38.0297 31.9544 37.6998 31.7508C37.6716 31.733 37.6436 31.7149 37.6157 31.6969C37.5878 31.6788 37.5599 31.6607 37.5316 31.643C37.4948 31.6193 37.4567 31.6009 37.4133 31.6009C37.1939 31.6049 37.0047 31.6772 36.8588 31.8467ZM14.4541 46.2929C16.5646 46.2929 18.2809 44.5754 18.2809 42.4662H18.2796V41.6606H10.6274V42.4662C10.6274 44.5767 12.3436 46.2929 14.4541 46.2929ZM9.55769 39.9523H19.3545C19.7002 39.9523 19.9827 39.6697 19.9827 39.3241C19.9827 38.9785 19.7015 38.6959 19.3545 38.6959H9.55769C9.21207 38.6959 8.92953 38.9785 8.92953 39.3241C8.92953 39.6697 9.21075 39.9523 9.55769 39.9523ZM7.4761 36.1045C7.4761 36.4501 7.75732 36.7326 8.10425 36.7326H20.808C21.1536 36.7326 21.4361 36.4501 21.4361 36.1045C21.4361 35.7589 21.1549 35.4763 20.808 35.4763H8.10425C7.75864 35.4763 7.4761 35.7589 7.4761 36.1045ZM22.3862 33.6116C22.7542 33.6116 23.0486 33.2949 23.0118 32.9203L23.0105 32.9216C22.9789 32.5944 22.6859 32.3553 22.3573 32.3553H21.2784C20.5622 32.3553 19.9814 31.7744 19.9814 31.0582C19.9814 30.593 20.2284 30.1593 20.6345 29.9333C24.5493 27.7545 27.2025 23.5755 27.2025 18.7868C27.2025 11.5906 21.2088 5.76773 13.9521 6.04895C7.37097 6.30389 2.02245 11.613 1.72283 18.1928C1.49417 23.2273 4.20259 27.6638 8.27641 29.932C8.68247 30.158 8.92953 30.5917 8.92953 31.0569C8.92953 31.7731 8.34868 32.3539 7.63248 32.3539H6.52467C6.15671 32.3539 5.86234 32.6706 5.89914 33.0452C5.93068 33.3724 6.22373 33.6116 6.55227 33.6116H22.3862Z" fill="white"/>
<path fill-rule="evenodd" clip-rule="evenodd" d="M122.108 11.995C122.108 13.8984 121.747 15.5178 121.026 16.853C120.31 18.1882 119.333 19.2081 118.094 19.9126C116.861 20.6115 115.475 20.9609 113.935 20.9609C112.384 20.9609 110.992 20.6087 109.759 19.9041C108.526 19.1996 107.551 18.1797 106.835 16.8445C106.119 15.5092 105.762 13.8928 105.762 11.995C105.762 10.0916 106.119 8.4723 106.835 7.13707C107.551 5.80184 108.526 4.7848 109.759 4.08593C110.992 3.38139 112.384 3.02911 113.935 3.02911C115.475 3.02911 116.861 3.38139 118.094 4.08593C119.333 4.7848 120.31 5.80184 121.026 7.13707C121.747 8.4723 122.108 10.0916 122.108 11.995ZM118.367 11.995C118.367 10.7621 118.182 9.7223 117.813 8.8757C117.449 8.02911 116.935 7.38707 116.27 6.94957C115.605 6.51207 114.827 6.29332 113.935 6.29332C113.043 6.29332 112.264 6.51207 111.6 6.94957C110.935 7.38707 110.418 8.02911 110.048 8.8757C109.685 9.7223 109.503 10.7621 109.503 11.995C109.503 13.228 109.685 14.2678 110.048 15.1143C110.418 15.9609 110.935 16.603 111.6 17.0405C112.264 17.478 113.043 17.6967 113.935 17.6967C114.827 17.6967 115.605 17.478 116.27 17.0405C116.935 16.603 117.449 15.9609 117.813 15.1143C118.182 14.2678 118.367 13.228 118.367 11.995Z" fill="white"/>
<path d="M67.7352 3.26775V20.7223H64.0449V3.26775H67.7352Z" fill="white"/>
<path d="M85.3709 3.26775V20.7223H82.1834L74.5896 9.7365H74.4618V20.7223H70.7715V3.26775H74.0101L81.5442 14.245H81.6976V3.26775H85.3709Z" fill="white"/>
<path d="M103.019 20.7223V3.26775H99.346V14.245H99.1926L91.6585 3.26775H88.4199V20.7223H92.1102V9.7365H92.2381L99.8318 20.7223H103.019Z" fill="white"/>
<path d="M131.23 16.5291L127.011 3.26775H122.911L128.937 20.7223H133.693L139.71 3.26775H135.619L131.391 16.5291H131.23Z" fill="white"/>
<path fill-rule="evenodd" clip-rule="evenodd" d="M142.499 20.7223H138.544L144.57 3.26775H149.325L155.342 20.7223H151.388L150.096 16.7422H143.794L142.499 20.7223ZM147.016 7.25639L149.16 13.8615H144.731L146.879 7.25639H147.016Z" fill="white"/>
<path d="M154.646 3.26775V6.31036H159.99V20.7223H163.637V6.31036H168.981V3.26775H154.646Z" fill="white"/>
<path d="M175.032 3.26775V20.7223H171.342V3.26775H175.032Z" fill="white"/>
<path fill-rule="evenodd" clip-rule="evenodd" d="M193.026 16.853C193.747 15.5178 194.108 13.8984 194.108 11.995C194.108 10.0916 193.747 8.4723 193.026 7.13707C192.31 5.80184 191.333 4.7848 190.094 4.08593C188.861 3.38139 187.475 3.02911 185.935 3.02911C184.384 3.02911 182.992 3.38139 181.759 4.08593C180.526 4.7848 179.551 5.80184 178.835 7.13707C178.119 8.4723 177.762 10.0916 177.762 11.995C177.762 13.8928 178.119 15.5092 178.835 16.8445C179.551 18.1797 180.526 19.1996 181.759 19.9041C182.992 20.6087 184.384 20.9609 185.935 20.9609C187.475 20.9609 188.861 20.6115 190.094 19.9126C191.333 19.2081 192.31 18.1882 193.026 16.853ZM189.813 8.8757C190.182 9.7223 190.367 10.7621 190.367 11.995C190.367 13.228 190.182 14.2678 189.813 15.1143C189.449 15.9609 188.935 16.603 188.27 17.0405C187.605 17.478 186.827 17.6967 185.935 17.6967C185.043 17.6967 184.264 17.478 183.6 17.0405C182.935 16.603 182.418 15.9609 182.048 15.1143C181.685 14.2678 181.503 13.228 181.503 11.995C181.503 10.7621 181.685 9.7223 182.048 8.8757C182.418 8.02911 182.935 7.38707 183.6 6.94957C184.264 6.51207 185.043 6.29332 185.935 6.29332C186.827 6.29332 187.605 6.51207 188.27 6.94957C188.935 7.38707 189.449 8.02911 189.813 8.8757Z" fill="white"/>
<path d="M211.441 3.26775V20.7223H208.254L200.66 9.7365H200.532V20.7223H196.842V3.26775H200.08L207.614 14.245H207.768V3.26775H211.441Z" fill="white"/>
<path d="M64.4597 30.1768V44.7223H72.7196V43.5291H65.7878V30.1768H64.4597Z" fill="white"/>
<path fill-rule="evenodd" clip-rule="evenodd" d="M80.4489 44.7223H79.0569L84.3481 30.1768H85.7685L91.0597 44.7223H89.6677L88.1091 40.3402H82.0076L80.4489 44.7223ZM85.108 31.9027L87.6847 39.147H82.4319L85.0086 31.9027H85.108Z" fill="white"/>
<path d="M108.681 44.7223V30.1768H107.374V42.3714H107.26L98.6381 30.1768H97.3526V44.7223H98.6808V32.5419H98.7944L107.388 44.7223H108.681Z" fill="white"/>
<path fill-rule="evenodd" clip-rule="evenodd" d="M120.609 44.7223H116.348V30.1768H120.865C122.252 30.1768 123.438 30.4657 124.423 31.0433C125.413 31.621 126.17 32.4496 126.696 33.5291C127.222 34.6087 127.484 35.9036 127.484 37.4141C127.484 38.9387 127.214 40.2479 126.675 41.3416C126.14 42.4306 125.358 43.2663 124.331 43.8487C123.308 44.4311 122.068 44.7223 120.609 44.7223ZM117.676 43.5291H120.531C121.781 43.5291 122.828 43.2829 123.67 42.7905C124.513 42.2981 125.145 41.5949 125.567 40.6811C125.988 39.7673 126.199 38.6783 126.199 37.4141C126.194 36.1593 125.986 35.0798 125.574 34.1754C125.167 33.2711 124.561 32.5774 123.756 32.0945C122.955 31.6115 121.966 31.37 120.787 31.37H117.676V43.5291Z" fill="white"/>
<path d="M141.329 31.8814C141.963 32.3596 142.321 33.0035 142.401 33.8132H143.687C143.658 33.0746 143.438 32.4164 143.026 31.8388C142.619 31.2564 142.067 30.7995 141.371 30.468C140.675 30.1366 139.875 29.9709 138.971 29.9709C138.076 29.9709 137.269 30.139 136.549 30.4751C135.834 30.8066 135.266 31.2706 134.844 31.8672C134.428 32.459 134.219 33.1456 134.219 33.9268C134.219 34.8596 134.534 35.6267 135.164 36.228C135.794 36.8293 136.679 37.3004 137.82 37.6413L139.56 38.1527C140.162 38.3279 140.689 38.5291 141.144 38.7564C141.603 38.9837 141.961 39.2654 142.216 39.6016C142.472 39.933 142.6 40.3449 142.6 40.8374C142.6 41.4197 142.437 41.9311 142.11 42.3714C141.788 42.8071 141.343 43.148 140.775 43.3942C140.211 43.6357 139.567 43.7564 138.843 43.7564C138.189 43.7564 137.598 43.6546 137.067 43.451C136.537 43.2427 136.106 42.9396 135.775 42.5419C135.443 42.1442 135.254 41.6589 135.207 41.0859H133.843C133.895 41.853 134.129 42.5277 134.546 43.1101C134.963 43.6925 135.536 44.1494 136.265 44.4808C136.994 44.8075 137.853 44.9709 138.843 44.9709C139.894 44.9709 140.796 44.791 141.549 44.4311C142.302 44.0665 142.879 43.5741 143.282 42.9538C143.684 42.3336 143.886 41.6352 143.886 40.8587C143.886 40.2526 143.767 39.7341 143.53 39.3033C143.298 38.8677 142.988 38.5007 142.6 38.2024C142.216 37.8994 141.793 37.6484 141.329 37.4496C140.865 37.2507 140.401 37.0874 139.937 36.9595L138.403 36.5192C138.052 36.4197 137.704 36.2966 137.359 36.1499C137.018 36.0031 136.705 35.8279 136.421 35.6243C136.142 35.416 135.919 35.1674 135.753 34.8785C135.588 34.5897 135.505 34.2535 135.505 33.87C135.505 33.3492 135.649 32.8852 135.938 32.478C136.232 32.066 136.634 31.7441 137.145 31.5121C137.662 31.2801 138.258 31.1641 138.935 31.1641C139.896 31.1641 140.694 31.4032 141.329 31.8814Z" fill="white"/>
<path d="M160.938 34.7223C160.839 34.2251 160.659 33.7659 160.399 33.3445C160.143 32.9183 159.821 32.5466 159.433 32.2294C159.044 31.9122 158.604 31.666 158.112 31.4908C157.619 31.3156 157.087 31.228 156.514 31.228C155.595 31.228 154.757 31.4671 153.999 31.9453C153.247 32.4235 152.643 33.1266 152.188 34.0547C151.739 34.978 151.514 36.1096 151.514 37.4496C151.514 38.799 151.739 39.9354 152.188 40.8587C152.643 41.782 153.247 42.4827 153.999 42.9609C154.757 43.4344 155.595 43.6712 156.514 43.6712C157.087 43.6712 157.619 43.5836 158.112 43.4084C158.604 43.2332 159.044 42.9893 159.433 42.6768C159.821 42.3596 160.143 41.9879 160.399 41.5618C160.659 41.1356 160.839 40.674 160.938 40.1768H162.274C162.155 40.8445 161.933 41.4671 161.606 42.0447C161.284 42.6177 160.872 43.1196 160.37 43.5504C159.873 43.9813 159.3 44.3175 158.651 44.5589C158.003 44.8004 157.29 44.9212 156.514 44.9212C155.292 44.9212 154.208 44.6158 153.261 44.005C152.314 43.3894 151.57 42.523 151.031 41.4055C150.496 40.2881 150.228 38.9695 150.228 37.4496C150.228 35.9297 150.496 34.611 151.031 33.4936C151.57 32.3762 152.314 31.5121 153.261 30.9013C154.208 30.2857 155.292 29.978 156.514 29.978C157.29 29.978 158.003 30.0987 158.651 30.3402C159.3 30.5769 159.873 30.9131 160.37 31.3487C160.872 31.7796 161.284 32.2815 161.606 32.8544C161.933 33.4273 162.155 34.0499 162.274 34.7223H160.938Z" fill="white"/>
<path fill-rule="evenodd" clip-rule="evenodd" d="M167.823 44.7223H169.215L170.773 40.3402H176.875L178.433 44.7223H179.825L174.534 30.1768H173.114L167.823 44.7223ZM176.45 39.147L173.874 31.9027H173.774L171.198 39.147H176.45Z" fill="white"/>
<path fill-rule="evenodd" clip-rule="evenodd" d="M186.118 30.1768H190.813C191.845 30.1768 192.707 30.3757 193.398 30.7734C194.094 31.1664 194.617 31.7015 194.968 32.3785C195.323 33.0556 195.5 33.8179 195.5 34.6655C195.5 35.513 195.325 36.2777 194.975 36.9595C194.624 37.6366 194.104 38.174 193.412 38.5717C192.721 38.9647 191.862 39.1612 190.834 39.1612H187.446V44.7223H186.118V30.1768ZM190.799 37.968H187.446V31.37H190.777C191.549 31.37 192.186 31.5121 192.688 31.7962C193.195 32.0802 193.571 32.4709 193.817 32.968C194.068 33.4652 194.194 34.031 194.194 34.6655C194.194 35.2999 194.068 35.8658 193.817 36.3629C193.571 36.8601 193.197 37.2531 192.695 37.5419C192.193 37.826 191.561 37.968 190.799 37.968Z" fill="white"/>
<path d="M210.856 30.1768H202.418V44.7223H210.998V43.5291H203.746V38.0391H210.408V36.8459H203.746V31.37H210.856V30.1768Z" fill="white"/>
</svg>
